<?xml version="1.0" standalone="no"?>
<!DOCTYPE svg PUBLIC "-//W3C//DTD SVG 20010904//EN"
 "http://www.w3.org/TR/2001/REC-SVG-20010904/DTD/svg10.dtd">
<svg version="1.0" xmlns="http://www.w3.org/2000/svg"
 width="64.000000pt" height="64.000000pt" viewBox="0 0 64.000000 64.000000"
 preserveAspectRatio="xMidYMid meet">

<g transform="translate(0.000000,64.000000) scale(0.100000,-0.100000)"
fill="#000000" stroke="none">
<path d="M565 620 c-3 -5 -15 -10 -26 -10 -19 0 -23 -9 -20 -41 1 -9 -6 -19
-15 -23 -11 -4 -14 -13 -10 -31 7 -29 1 -32 -21 -9 -10 10 -27 14 -44 12 -26
-4 -28 -2 -23 21 l6 26 -19 -22 c-15 -19 -30 -23 -93 -25 l-75 -3 2 -45 c3
-44 2 -44 -12 -20 -18 31 -19 54 -3 79 24 38 4 51 -77 51 -73 0 -75 -1 -75
-25 0 -14 5 -33 11 -43 9 -15 4 -33 -30 -96 -37 -69 -41 -85 -41 -147 0 -39 4
-69 10 -69 6 0 10 15 11 33 0 32 0 32 16 10 19 -28 39 -29 53 -3 8 15 21 20
50 20 l40 0 0 -62 0 -63 -76 -3 c-69 -2 -76 0 -81 18 -11 44 -23 16 -23 -55 0
-64 3 -76 20 -85 12 -7 123 -9 317 -8 l298 3 3 213 c1 116 0 212 -3 212 -4 0
-15 -4 -25 -10 -15 -8 -18 -5 -22 19 -3 20 1 32 14 40 13 8 17 18 13 31 -4 11
-2 20 3 20 15 0 23 29 13 48 -5 9 -12 25 -15 35 -6 18 -41 23 -51 7z m27 -37
c-4 -21 -2 -25 12 -20 24 9 20 -8 -6 -26 -19 -14 -21 -18 -8 -26 22 -15 5 -24
-34 -17 -35 7 -59 36 -30 36 12 0 15 7 12 30 -3 17 -1 30 4 30 4 0 8 -4 8 -10
0 -18 18 -11 25 10 9 30 23 24 17 -7z m-394 -35 c-3 -8 -27 -14 -61 -16 -46
-2 -57 0 -57 13 0 12 13 15 61 15 44 0 60 -3 57 -12z m-18 -53 c0 -9 7 -29 15
-44 14 -27 13 -29 -8 -36 -22 -7 -22 -8 3 -12 41 -8 45 -20 19 -58 l-24 -35
-82 0 c-47 0 -83 4 -83 10 0 5 8 25 17 45 16 33 19 35 65 35 30 0 47 4 43 10
-3 6 -22 10 -41 10 -20 0 -34 3 -32 8 2 4 10 24 18 45 13 34 17 37 52 37 28 0
38 -4 38 -15z m205 -5 c4 -6 15 -5 30 2 19 8 28 8 40 -2 18 -15 20 -46 3 -56
-15 -10 -128 -13 -128 -4 0 36 15 70 31 70 10 0 20 -4 24 -10z m169 -26 c9 -8
16 -19 16 -23 0 -10 -67 -31 -74 -23 -12 12 -5 41 12 51 23 14 28 14 46 -5z
m-254 -48 c0 -32 7 -52 24 -73 14 -16 26 -45 28 -64 2 -18 8 -32 13 -29 18 9
8 60 -19 99 -14 20 -26 39 -26 42 0 6 41 9 98 8 31 0 68 0 92 1 27 0 61 0 88
-1 l22 -1 0 -189 0 -189 -25 0 c-22 0 -24 3 -15 19 16 31 12 76 -11 105 -19
24 -26 26 -104 26 -76 0 -83 2 -88 21 -12 46 -27 4 -27 -77 l0 -84 -75 0 -75
0 0 136 c0 129 1 137 25 168 17 22 25 46 25 73 0 44 5 53 32 53 15 0 18 -8 18
-44z m-162 -135 c-26 -4 -53 -14 -60 -22 -12 -14 -16 -13 -37 8 l-24 23 84 -1
c72 -1 77 -3 37 -8z m268 -211 c21 -18 44 5 44 46 0 19 5 34 10 34 6 0 10 -18
10 -39 0 -28 5 -41 17 -45 23 -9 43 19 43 57 0 29 0 30 20 12 22 -20 26 -55
10 -86 -9 -16 -22 -19 -95 -19 l-85 0 2 63 c1 40 3 49 5 25 2 -20 11 -42 19
-48z m24 50 c0 -16 -4 -30 -10 -30 -5 0 -10 14 -10 30 0 17 5 30 10 30 6 0 10
-13 10 -30z m67 -17 c-3 -10 -5 -2 -5 17 0 19 2 27 5 18 2 -10 2 -26 0 -35z
m-329 8 c6 0 12 -5 12 -11 0 -5 -20 -10 -45 -10 -25 0 -45 -4 -45 -10 0 -5 20
-10 45 -10 42 0 45 -2 45 -25 0 -26 0 -26 -77 -23 -72 3 -78 5 -81 26 -3 17 2
22 17 22 12 0 21 5 21 10 0 6 -9 10 -20 10 -11 0 -20 6 -20 13 0 10 85 15 148
8z"/>
<path d="M222 168 l3 -113 55 0 55 0 3 113 3 112 -61 0 -61 0 3 -112z"/>
<path d="M118 216 c-13 -31 -4 -56 21 -56 26 0 34 28 16 56 -19 30 -23 30 -37
0z m32 -27 c0 -5 -4 -9 -10 -9 -5 0 -10 7 -10 16 0 8 5 12 10 9 6 -3 10 -10
10 -16z"/>
</g>
</svg>
