<?xml version="1.0" standalone="no"?>
<!DOCTYPE svg PUBLIC "-//W3C//DTD SVG 20010904//EN"
 "http://www.w3.org/TR/2001/REC-SVG-20010904/DTD/svg10.dtd">
<svg version="1.0" xmlns="http://www.w3.org/2000/svg"
 width="32.000000pt" height="32.000000pt" viewBox="0 0 32.000000 32.000000"
 preserveAspectRatio="xMidYMid meet">

<g transform="translate(0.000000,32.000000) scale(0.100000,-0.100000)"
fill="#000000" stroke="none">
<path d="M217 259 c4 -13 8 -18 11 -10 2 7 -1 18 -6 23 -8 8 -9 4 -5 -13z"/>
<path d="M68 243 c17 -2 47 -2 65 0 17 2 3 4 -33 4 -36 0 -50 -2 -32 -4z"/>
<path d="M58 213 c12 -2 30 -2 40 0 9 3 -1 5 -23 4 -22 0 -30 -2 -17 -4z"/>
<path d="M181 196 c-13 -14 -20 -29 -17 -35 4 -5 1 -13 -4 -16 -8 -5 -6 -13 6
-26 25 -27 34 -24 33 14 l-1 32 -8 -30 c-4 -16 -9 -25 -10 -20 -11 58 -3 80
35 95 14 6 15 9 4 9 -8 1 -26 -10 -38 -23z"/>
<path d="M250 213 c8 -3 24 -13 35 -22 20 -16 20 -16 1 7 -11 12 -26 22 -35
21 -14 0 -14 -1 -1 -6z"/>
<path d="M68 183 c12 -2 32 -2 45 0 12 2 2 4 -23 4 -25 0 -35 -2 -22 -4z"/>
<path d="M17 160 c6 -8 13 -28 15 -45 l3 -29 35 33 c30 28 31 30 5 11 -30 -22
-30 -22 -33 -2 -2 11 -11 26 -20 34 -15 11 -15 11 -5 -2z"/>
<path d="M296 157 c-5 -9 -6 -27 -3 -39 8 -28 -18 -58 -50 -58 -12 0 -23 -4
-23 -9 0 -17 43 -2 68 22 18 19 23 32 20 63 -3 30 -6 35 -12 21z"/>
<path d="M270 110 c0 -5 5 -10 11 -10 5 0 7 5 4 10 -3 6 -8 10 -11 10 -2 0 -4
-4 -4 -10z"/>
</g>
</svg>
